<?xml version="1.0" standalone="no"?>
<!DOCTYPE svg PUBLIC "-//W3C//DTD SVG 20010904//EN"
 "http://www.w3.org/TR/2001/REC-SVG-20010904/DTD/svg10.dtd">
<svg version="1.0" xmlns="http://www.w3.org/2000/svg"
 width="260.000000pt" height="260.000000pt" viewBox="0 0 260.000000 260.000000"
 preserveAspectRatio="xMidYMid meet">
<metadata>
Created by potrace 1.11, written by Peter Selinger 2001-2013
</metadata>
<g transform="translate(0.000000,260.000000) scale(0.100000,-0.100000)"
fill="#000000" stroke="none">
<path d="M0 1300 l0 -1300 1300 0 1300 0 0 1300 0 1300 -1300 0 -1300 0 0
-1300z m2265 451 c102 -47 169 -129 188 -228 l7 -33 -64 0 -63 0 -11 38 c-48
159 -284 213 -434 99 -127 -97 -166 -365 -78 -544 121 -246 483 -200 526 66
l7 41 64 0 64 0 -7 -37 c-42 -229 -188 -342 -426 -331 -88 4 -106 9 -172 42
-81 40 -131 89 -172 169 -81 159 -76 407 13 554 44 75 70 101 139 142 81 50
133 61 250 58 89 -3 109 -7 169 -36z m-1945 -361 l0 -380 225 0 225 0 0 -85 0
-85 -330 0 -330 0 0 465 0 465 105 0 105 0 0 -380z m1110 351 c48 -25 82 -58
108 -106 13 -23 17 -56 17 -140 0 -102 -2 -113 -28 -157 -57 -98 -116 -118
-354 -118 l-173 0 0 -190 0 -190 -65 0 -65 0 0 466 0 465 258 -3 c248 -3 259
-4 302 -27z"/>
<path d="M1000 1495 l0 -177 163 3 c182 4 213 14 252 79 27 48 27 142 0 189
-37 63 -79 76 -257 79 l-158 4 0 -177z"/>
</g>
</svg>
